<?xml version="1.0" encoding="utf-8"?>
<!-- Generator: Adobe Illustrator 27.5.0, SVG Export Plug-In . SVG Version: 6.00 Build 0)  -->
<svg version="1.1" xmlns="http://www.w3.org/2000/svg" xmlns:xlink="http://www.w3.org/1999/xlink" x="0px" y="0px"
	 viewBox="0 0 500 500" style="enable-background:new 0 0 500 500;" xml:space="preserve">
<g id="BACKGROUND">
	<rect x="0" y="0" style="fill:#E6FBFC;" width="500" height="500"/>
</g>
<g id="OBJECTS">
	<path style="fill:#CEE6F7;" d="M186.965,99.476c25.908-4.521,52.263-8.167,77.119-17.068c26.272-9.408,47.56-30.52,75.524-35.291
		c26.859-4.582,55.736,3.633,76.626,20.992c28.601,23.767,42.707,62.274,41.452,99.439s-16.594,72.878-38.401,103
		c-28.465,39.317-65.529,72.275-109.416,92.651c-67.079,31.144-179.624,48.076-240.693-4.915
		c-32.94-28.58-45.424-76.118-38.616-119.193c12.762-80.741,78.481-125.824,154.014-139.195
		C185.37,99.755,186.167,99.615,186.965,99.476z"/>
	<g>
		<path style="fill:#285672;" d="M330.9,178.78v245.73H182.29V178.78c0-41.03,33.27-74.3,74.3-74.3
			C297.63,104.48,330.9,137.75,330.9,178.78z"/>
		<path style="fill:#285672;" d="M458.84,216.5v208.69H343.86V216.5c0-31.76,25.74-57.5,57.49-57.5S458.84,184.74,458.84,216.5z"/>
		<path style="fill:#285672;" d="M168.96,216.5v208.69H53.97V216.5c0-31.76,25.75-57.5,57.5-57.5S168.96,184.74,168.96,216.5z"/>
		<g>
			<path style="fill:#F0AD1D;" d="M239.726,176.876c-9.872-9.872-9.872-25.88,0-35.752c7.212-7.212,17.693-9.156,26.668-5.832
				c-5.372-0.207-10.811,1.738-14.913,5.84c-7.806,7.806-7.806,20.464,0,28.271s20.463,7.804,28.269-0.002
				c0.598-0.598,1.151-1.227,1.657-1.878c-1.218,3.415-3.195,6.621-5.928,9.354C265.606,186.749,249.599,186.749,239.726,176.876z"
				/>
			<path style="fill:#E59D0E;" d="M274.205,178.068c-9.931,8.663-25.017,8.269-34.477-1.191c-9.873-9.873-9.873-25.882,0-35.75
				c1.24-1.24,2.58-2.325,3.992-3.253c-0.428,0.375-0.85,0.769-1.259,1.177c-9.873,9.873-9.873,25.882,0,35.75
				C251.085,183.425,264.399,184.516,274.205,178.068z"/>
		</g>
		<g>
			<defs>
				<path id="SVGID_1_" d="M256.578,104.547L256.578,104.547c-41.036,0-74.303,33.266-74.303,74.303v245.725h148.605V178.85
					C330.881,137.814,297.614,104.547,256.578,104.547z"/>
			</defs>
			<clipPath id="SVGID_00000054229562384976157240000003059916875332630965_">
				<use xlink:href="#SVGID_1_"  style="overflow:visible;"/>
			</clipPath>
			<path style="clip-path:url(#SVGID_00000054229562384976157240000003059916875332630965_);fill:#3D738E;" d="M153.4,194.915
				h92.846c0,0-1.426-18.088-24.236-12.653c0,0-3.297-8.91-16.039-8.198c-12.742,0.713-13.544,10.405-13.544,10.405
				s-1.381-3.655-6.415-3.187c-4.438,0.412-5.703,4.455-5.703,4.455S161.954,184.535,153.4,194.915z"/>
			<path style="clip-path:url(#SVGID_00000054229562384976157240000003059916875332630965_);fill:#3D738E;" d="M265.777,219.226
				h92.845c0,0-1.426-18.088-24.236-12.653c0,0-3.297-8.91-16.039-8.197c-12.742,0.713-13.544,10.405-13.544,10.405
				s-1.381-3.655-6.415-3.188c-4.438,0.412-5.703,4.455-5.703,4.455S274.331,208.846,265.777,219.226z"/>
		</g>
		<g>
			<path style="fill:#1F4C63;" d="M157.48,323.31v53.32h-13.578v-83h3.242c1.523,0,2.759-1.235,2.759-2.759v-7.537
				c0-0.879-0.419-1.652-1.058-2.157l0.075-0.075c4.764-4.764,6.489-11.969,4.404-18.376c-2.263-6.954-8.127-8.866-13.226-13.243
				c-3.98-3.416-7.413-7.459-10.139-11.94c0,0-1.472-2.42-1.472-2.42c-4.366,8.124-10.684,14.147-18.316,19.127
				c-9.12,5.951-9.645,19.324-2.118,26.852c0,0,0.04,0.04,0.099,0.099c-0.623,0.506-1.03,1.268-1.03,2.134v7.537
				c0,1.524,1.235,2.759,2.759,2.759h3.25v103.298c0,0.011-0.002,0.021-0.002,0.031v28.23h55.83v-38.94v-9.62V306.1
				C162.22,308.9,157.48,315.55,157.48,323.31z"/>
			<path style="fill:#1F4C63;" d="M328.407,276.85c-6.335-19.469-22.753-24.822-37.029-37.076
				c-11.141-9.563-20.755-20.884-28.385-33.428c0,0-4.121-6.775-4.121-6.775c-12.223,22.746-29.911,39.608-51.278,53.55
				c-17.493,11.415-23.686,32.582-19.078,51.558h-6.225v71.95v9.62v38.26H330.9v-38.26v-9.62v-71.95h-1.565
				C331.579,295.617,331.367,285.947,328.407,276.85z"/>
			<path style="fill:#1F4C63;" d="M407.131,281.177l0.075-0.075c4.764-4.764,6.489-11.969,4.404-18.376
				c-2.263-6.954-8.127-8.866-13.226-13.243c-3.98-3.416-7.413-7.459-10.139-11.94c0,0-1.472-2.42-1.472-2.42
				c-4.366,8.124-10.684,14.147-18.316,19.127c-9.12,5.951-9.645,19.324-2.117,26.852c0,0,0.04,0.04,0.099,0.099
				c-0.623,0.506-1.03,1.268-1.03,2.134v7.537c0,1.524,1.235,2.759,2.759,2.759h3.25v83H357.84v-53.32
				c0-8.69-5.94-15.98-13.98-18.04v71.36v9.62v38.94h58.33v-28.23c0-0.008-0.001-0.016-0.001-0.024V293.63h3.242
				c1.524,0,2.759-1.235,2.759-2.759v-7.537C408.19,282.456,407.771,281.682,407.131,281.177z"/>
		</g>
		<g>
			<defs>
				<path id="SVGID_00000083806459018456909790000004500584475421975482_" d="M168.96,216.5v208.69H53.97V216.5
					c0-31.76,25.75-57.5,57.5-57.5S168.96,184.74,168.96,216.5z"/>
			</defs>
			<clipPath id="SVGID_00000152221790964860320660000005906185686807986854_">
				<use xlink:href="#SVGID_00000083806459018456909790000004500584475421975482_"  style="overflow:visible;"/>
			</clipPath>
			<path style="clip-path:url(#SVGID_00000152221790964860320660000005906185686807986854_);fill:#3D738E;" d="M38.043,248.302
				h65.209c0,0-1.001-12.704-17.022-8.886c0,0-2.315-6.258-11.265-5.758c-8.949,0.501-9.512,7.308-9.512,7.308
				s-0.97-2.567-4.506-2.239c-3.117,0.29-4.005,3.129-4.005,3.129S44.051,241.012,38.043,248.302z"/>
			<path style="clip-path:url(#SVGID_00000152221790964860320660000005906185686807986854_);fill:#3D738E;" d="M100.105,286.124
				h65.209c0,0-1.001-12.704-17.022-8.886c0,0-2.315-6.258-11.264-5.757s-9.512,7.308-9.512,7.308s-0.97-2.567-4.506-2.239
				c-3.117,0.29-4.005,3.129-4.005,3.129S106.113,278.833,100.105,286.124z"/>
		</g>
		<g>
			<defs>
				<path id="SVGID_00000093167343156660859070000011013404170655855008_" d="M343.855,216.5v208.69h114.99V216.5
					c0-31.76-25.75-57.5-57.5-57.5S343.855,184.74,343.855,216.5z"/>
			</defs>
			<clipPath id="SVGID_00000090992486125064222780000002040899747350674087_">
				<use xlink:href="#SVGID_00000093167343156660859070000011013404170655855008_"  style="overflow:visible;"/>
			</clipPath>
			<path style="clip-path:url(#SVGID_00000090992486125064222780000002040899747350674087_);fill:#3D738E;" d="M474.772,248.302
				h-65.209c0,0,1.001-12.704,17.022-8.886c0,0,2.315-6.258,11.264-5.758c8.949,0.501,9.512,7.308,9.512,7.308
				s0.97-2.567,4.506-2.239c3.117,0.29,4.005,3.129,4.005,3.129S468.764,241.012,474.772,248.302z"/>
			<path style="clip-path:url(#SVGID_00000090992486125064222780000002040899747350674087_);fill:#3D738E;" d="M406.653,272.815
				h-65.209c0,0,1.001-12.704,17.022-8.887c0,0,2.315-6.258,11.264-5.757c8.949,0.501,9.512,7.308,9.512,7.308
				s0.97-2.567,4.506-2.239c3.117,0.29,4.005,3.129,4.005,3.129S400.645,265.525,406.653,272.815z"/>
		</g>
	</g>
	<g>
		<path style="opacity:0.5;fill:#A6E2E2;" d="M373.604,466.297H192.416c-3.917,0-7.091-3.175-7.091-7.091l0,0
			c0-3.916,3.175-7.091,7.091-7.091h181.188c3.917,0,7.091,3.175,7.091,7.091l0,0C380.695,463.123,377.521,466.297,373.604,466.297z
			"/>
		<g>
			<g>
				<path style="fill:#F4B1A2;" d="M240.97,446.317c-0.085-0.04-17.994-0.03-17.994-0.03l-7.466,0.306
					c-1.892,0.078-3.388,1.537-3.334,3.253l0.359,11.354c0.068,2.152,2.142,3.755,4.503,3.48l0,0
					c1.255-0.146,2.378-0.81,3.041-1.798l0.496-0.738l21.797-3.776C242.373,458.368,247.698,449.517,240.97,446.317z"/>
				<path style="fill:#396F8E;" d="M293.847,417.552l-58.232-2.888c-6.966,0.063-12.933,5.003-14.294,11.835l0,0
					c-1.86,9.333,5.496,17.949,15.005,17.575l55.513-2.183L293.847,417.552z"/>
				<polygon style="fill:#316389;" points="348.739,418.353 292.964,417.503 277.821,434.87 315.941,457.202 				"/>
				<path style="fill:#3F7393;" d="M318.855,421.148l29.884-2.795l2.569,10.275c2.629,10.515-3.479,21.237-13.865,24.338
					l-11.732,3.503c-10.669,3.186-21.653-3.937-23.098-14.977l0,0C301.285,431.334,308.655,422.102,318.855,421.148z"/>
				<path style="fill:#4B7DA3;" d="M240.777,439.619l74.292-19.055c10.009-2.724,20.033,4.056,22.129,13.81l0,0
					c2.223,10.344-5.675,20.248-16.664,20.898l-78.698,4.553l-0.984-1.213C237.397,454.353,237.56,444.06,240.777,439.619
					L240.777,439.619z"/>
				<path style="fill:#3E7391;" d="M278.736,462.795l1.862-0.858c7.054-3.252,11.635-10.242,11.803-18.008l0,0l-13.661,3.087
					L278.736,462.795z"/>
				<path style="fill:#2D637A;" d="M278.066,461.609l1.728-0.909c6.317-3.325,10.328-9.821,10.471-16.959l0.001-0.045l-12.71,2.689
					L278.066,461.609z"/>
				<path style="fill:#EA9F92;" d="M283.206,456.187c-0.305-0.04-14.248-3.915-14.069-4.9c0.179-0.986,7.259-12.516,7.259-12.516
					l14.068,5.31L283.206,456.187z"/>
				<path style="fill:#F4B1A2;" d="M337.801,461.935c-0.83,2.62-2.98,3.19-4.92,3.1c-2-0.09-3.87-1.04-5.24-2.49l-1.01-1.06
					l-5.23,0.27l-0.15,0.01l-20.4,1.06c-0.41,0.02-0.81,0.03-1.22,0.03c-6.12,0-12.01-2.38-16.43-6.67
					c-0.37-1.37-0.2-2.82,0.48-4.07c0.93-1.73,2.21-4.09,2.59-4.81c0.32-0.63,2.88-2.47,4.96-3.01c2.15-0.55,3.22-0.41,5.42-0.08
					l2.32,0.36l15.27-3.23c0.91-0.19,1.83-0.31,2.75-0.35l2.19-0.11c2.11-0.11,4.15,0.67,5.64,2.16
					C329.451,447.675,339.072,457.925,337.801,461.935z"/>
				<path style="fill:#4175A0;" d="M243.743,416.966l48.657,26.962l-3.497,2.246c-5.752,3.694-9.497,9.817-10.168,16.62h0
					l-47.5-16.702c-9.873-3.472-13.903-15.261-8.221-24.05l0,0C227.487,415.125,236.58,412.898,243.743,416.966z"/>
				<path style="fill:none;stroke:#1F5976;stroke-width:1.1839;stroke-miterlimit:10;" d="M286.831,443.198"/>
				<path style="fill:none;stroke:#1F5976;stroke-width:1.1839;stroke-miterlimit:10;" d="M253.161,415.661"/>
			</g>
			<g>
				<g>
					<path style="fill:#2F7F62;" d="M217.19,398.388c0,0,0.13,12.049,11.99,13.788l2.087-15.089L217.19,398.388z"/>
					<path style="fill:#276B51;" d="M218.364,398.252c0,0,0.12,11.12,11.066,12.725l1.927-13.927L218.364,398.252z"/>
					<path style="fill:#F4B1A2;" d="M257.891,379.945c0,2.77-1.12,5.61-3.33,7.79l-20.25,15.93l-7.66,6.03l-4.03,3.17l-7.67-8.73
						l3.93-4.68l2.82-3.36l18.93-22.55c4.19-4.12,10.71-4.28,14.55-0.36C257.001,375.035,257.891,377.465,257.891,379.945z"/>
					<path style="fill:#EA9F92;" d="M234.481,403.375c0,0-0.06,0.1-0.17,0.29l-8.499,6.69c0.693-8.196-7.282-10.481-7.282-10.481
						l3.171-3.779L234.481,403.375z"/>
					<path style="fill:#2F7F62;" d="M296.431,334.785c-0.24,2-0.99,3.97-2.26,5.73c-0.15,0.19-0.3,0.38-0.44,0.57
						c-1.45,1.84-2.89,3.67-4.33,5.51c-3.18,4.05-6.31,8.16-9.44,12.29c0,0,0,0.01-0.01,0.02c-0.38,0.5-0.76,1-1.15,1.5
						c-6.46,8.53-12.96,17.08-19.93,25.1c-0.01,0.01-0.01,0.02-0.01,0.02c-5.03,5.78-11.62,10.61-17.34,15.69
						c-4.11,3.65-8.23,7.31-12.34,10.96l-0.24-1.29l-0.49-2.61l-0.05-0.26c-0.87-4.66-4.41-8.26-8.88-9.32
						c-0.38-0.09-0.76-0.16-1.15-0.21c-0.39-0.05-0.78-0.09-1.18-0.1c8.84-10.13,17.36-20.72,26.85-30.21
						c1.8-1.79,3.06-4.1,4.52-6.16c8.29-11.75,16.44-23.59,24.66-35.38c1.89-3.1,4.91-5.11,8.21-5.79c2.89-0.6,6.01-0.18,8.77,1.39
						C294.801,324.865,297.072,329.915,296.431,334.785z"/>
					<path style="fill:#276B51;" d="M279.961,345.715v13.17c0,0,0,0.01-0.01,0.02c-0.07,0.13-0.46,0.86-1.09,2.01
						c-0.03-0.26-0.05-0.43-0.06-0.51c-6.46,8.53-12.96,17.08-19.93,25.1c0.5-0.74,17.155-21.44,18.9-33.02
						C278.205,349.61,279.711,347.475,279.961,345.715z"/>
					<path style="fill:#F4B1A2;" d="M210.862,404.656c-1.263,0.979-2.417,2.107-3.602,3.173c-2.03,1.825-3.961,3.785-5.342,6.16
						c-4.024,6.92-3.84,16.797,1.998,22.676c0.425,0.428,0.891,0.842,1.458,1.049c0.567,0.207,1.258,0.169,1.707-0.235
						c0.459-0.414,0.56-1.097,0.525-1.715c-0.104-1.82-1.109-3.452-1.604-5.206c-0.614-2.174-0.428-4.511,0.156-6.692
						c0.447-1.666,1.143-3.303,2.31-4.574c1.454-1.583,3.141-1.829,5.124-2.201c1.059-0.199,2.019,0.681,1.888,1.75
						c-0.345,2.836-0.479,7.653,2.188,9.489c1.579,1.087,3.724-0.206,3.621-2.12l-0.197-3.642c-0.056-1.038,0.089-1.618,0.395-2.118
						c1.042-1.697,3.472-5.869,3.656-8.166c0.547-6.832-5.461-12.575-12.1-9.059C212.268,403.635,211.549,404.123,210.862,404.656z"
						/>
				</g>
				<path style="fill:#2F7F62;" d="M347.911,410.635l0.83,7.72l-14.49,1.46c-0.15,0.02-0.29,0.03-0.42,0.04l-0.34,0.03l-0.46,0.05
					l-8.26,0.83l-2.46,0.25c-0.35,0.03-0.69,0.07-1.04,0.09c-0.55,0.06-1.11,0.1-1.66,0.13c-0.3,0.02-0.61,0.04-0.91,0.05
					c-0.13,0.01-0.26,0.02-0.39,0.02c-0.29,0.01-0.59,0.03-0.88,0.04h-0.03c-0.02,0-0.04,0.01-0.06,0
					c-0.15,0.01-0.29,0.02-0.44,0.02c-0.11,0.01-0.23,0.01-0.34,0.01h-0.1c-0.63,0.03-1.26,0.04-1.89,0.05h-1.97
					c-0.29,0-0.58,0-0.86-0.01c-0.34,0.01-0.68,0-1.02,0h-0.58c-2.64-0.02-5.26-0.08-7.86-0.22c-2.91-0.16-5.8-0.43-8.66-0.9
					c-0.89-0.14-1.78-0.31-2.66-0.49c-1.27-0.26-2.54-0.57-3.79-0.93c-1.84-0.52-3.67-1.16-5.47-1.92c-0.01,0-0.01-0.01-0.02-0.01
					l1.62-13.96c0.07-1.08,0.03-2.18-0.12-3.26c0,0-3.75-34.04-4.32-38.81c-0.03-0.26-0.05-0.43-0.06-0.51
					c-0.01-0.02-0.01-0.04-0.01-0.04l-1.02-7.88l-1.66-12.8l-0.6-4.66l20.92-0.24l32.8-0.37l15.09-0.17l5.14-0.06l-0.87,13.04
					l-2.12,31.55l-0.55,8.14l-0.22,3.31l0.04,0.41l0.59,5.41l1.57,14.55C347.901,410.605,347.911,410.625,347.911,410.635z"/>
				<path style="fill:#276B51;" d="M348.741,418.355l-26.43,2.66c-0.35,0.03-0.69,0.07-1.04,0.09c-0.55,0.06-1.11,0.1-1.66,0.13
					c-0.43,0.03-0.87,0.06-1.3,0.07c-0.59,0.03-1.17,0.06-1.75,0.07c6.44-6.8,25.86-30.22,29.36-34.46l-0.22,3.31l0.63,5.82
					L348.741,418.355z"/>
				<path style="fill:#276B51;" d="M333.03,419.936c0,0,17.079-2.433,18.756,11.356c0,0,1.292,0.434,1.307-2.424
					c0.015-2.859-3.038-7.137-5.185-18.228C345.76,399.548,333.03,419.936,333.03,419.936z"/>
				<path style="fill:#276B51;" d="M326.446,341.73l-5.438,39.195c-0.139,2.063-0.93,4.027-2.259,5.611l-16.998,20.257
					c-1.025,1.222-1.477,2.82-1.24,4.397c0.38,2.522,1.377,6.092,3.994,7.163c5.989,2.45,33.069-32.146,33.069-32.146
					L326.446,341.73z"/>
				<path style="fill:#2F7F62;" d="M338.232,337.025l-54.32,4.95c-2.874,0.262-5.399-0.528-7.382-1.96
					c-6.666-4.813-5.014-15.26,2.636-18.271c3.676-1.447,7.046-2.835,10.246-4.069c1.69-0.65,3.4-1.22,5.13-1.7
					c8.98-2.49,18.46-2.67,27.53-0.54c2.03,0.47,4.05,1.06,6.03,1.76l13.27,4.42C349.951,324.675,347.561,336.175,338.232,337.025z"
					/>
				<g>
					<path style="fill:#2F7F62;" d="M303.139,409.924c0.184,2.195,1.602,10.246,12.505,13.675c0.558,0.175,1.131-0.234,1.169-0.817
						l1.004-15.228l-14.164,1.743C303.339,409.335,303.112,409.609,303.139,409.924z"/>
					<path style="fill:#276B51;" d="M304.505,408.548c0,0-0.154,10.298,12.959,13.843l-1.498-12.58L304.505,408.548z"/>
					<path style="fill:#F4B1A2;" d="M343.121,389.765c0,2.44-0.89,4.95-2.69,7.01l-16.48,14.59l-10.67,9.45l-5.68,5.03l-9.14-7.99
						l6.41-7.73l4.85-5.85l16.53-19.92c3.72-4.25,9.91-4.91,13.83-1.48C342.102,384.645,343.121,387.155,343.121,389.765z"/>
					<path style="fill:#EA9F92;" d="M313.281,420.815c1.43-6.45-8.41-10.69-8.41-10.69l4.85-5.85l14.23,7.09L313.281,420.815z"/>
					<path style="fill:#2F7F62;" d="M349.461,334.185l-1.68,26.23c0,0,0,0.01,0,0.02l-1.8,28.22c-0.08,1.16-0.24,2.31-0.56,3.43
						c-0.35,1.19-0.84,2.37-1.6,3.65c-1.47,2.49-3.31,4.76-5.37,6.79l-21.786,20.696l-0.204-1.866c-0.37-3.41-1.99-6.41-4.38-8.55
						c-2.39-2.15-5.332-3.352-8.762-3.352l19.441-22.649c0.729-0.837,1.129-1.911,1.126-3.022l2.524-41.279
						c-0.02-6.78,9.416-22.736,9.416-22.736C345.895,322.054,349.951,326.895,349.461,334.185z"/>
					<path style="fill:#F4B1A2;" d="M292.207,415.318l9.985-3.01c1.048-0.316,2.163-0.355,3.218-0.065
						c2.318,0.637,5.625,2.713,4.706,9.434c-0.187,1.366-1.479,2.979-2.057,4.205c-1.023,2.171-1.818,4.44-3.096,6.493
						c-2.132,3.422-5.354,5.589-9.172,6.776c-4.089,1.271-7.402-0.749-11.057-2.315c0,0-7.263,1.776-8.448-0.079
						c-0.474-0.742-0.455-1.434-0.262-1.996c0.27-0.787,0.926-1.382,1.709-1.664l2.232-0.804c2.25-0.81,4.397-1.883,6.396-3.195
						l2.248-1.475c1.417-0.93,2.435-2.356,2.854-3.999c0.077-0.303-0.312-0.499-0.506-0.253c-1.397,1.778-3.079,3.495-5.11,4.539
						c-1.37,0.704-6.767,1.997-7.017-0.735c-0.114-1.247,2.775-2.78,3.626-3.515c1.895-1.638,3.626-3.456,5.226-5.381
						C288.858,416.864,290.445,415.849,292.207,415.318z"/>
				</g>
			</g>
			<g>
				<path style="fill:#142E4C;" d="M307.695,272.3l12.955-1.222l1.263,16.169c0.494,7.615-4.04,14.704-11.206,17.327
					c-0.073,0.027-0.146,0.053-0.22,0.08L307.695,272.3z"/>
				<path style="fill:#285E71;" d="M281.811,289.231l-3.712,0.358c-2.404,0.232-4.498-1.079-4.677-2.929l-1.116-9.377l8.128-0.785
					L281.811,289.231z"/>
				<path style="fill:#F4B1A2;" d="M308.401,326.355l-0.56,0.06c-4.7,0.45-8.97-2.49-10.32-6.84c-0.06-0.19-0.12-0.37-0.16-0.56
					c-0.12-0.47-0.2-0.94-0.25-1.44l-0.01-0.08l-2.18-22.61l-0.11-1.21c-0.53-5.4,3.44-10.21,8.83-10.73l0.57-0.06
					c3.72-0.35,7.15,1.4,9.09,4.29c0.15,0.22,0.28,0.43,0.41,0.66c0.02,0.03,0.04,0.07,0.06,0.1c0.64,1.13,1.05,2.42,1.18,3.8
					l0.13,1.38l2.17,22.51C317.771,321.035,313.811,325.835,308.401,326.355z"/>
				<path style="fill:#EA9F92;" d="M297.801,318.975l-0.44,0.04c-0.12-0.47-0.2-0.94-0.25-1.44l-0.01-0.08l-2.18-22.61l-0.11-1.21
					c-0.53-5.4,3.44-10.21,8.83-10.73l0.57-0.06c3.72-0.35,7.15,1.4,9.09,4.29c0.15,0.22,0.28,0.43,0.41,0.66l1.02,10.58
					C315.732,308.775,308.151,317.975,297.801,318.975z"/>
				<path style="fill:#F4B1A2;" d="M297.538,316.535l-1.077,0.102c-10.349,0.997-19.554-6.582-20.551-16.936l-1.84-19.036
					l-0.22-2.299c-1.003-10.349,6.581-19.548,16.93-20.552l1.078-0.102c10.348-0.997,19.554,6.582,20.551,16.936l0.255,2.643
					l1.804,18.687C315.471,306.332,307.887,315.531,297.538,316.535z"/>
				<g>
					<path style="fill:#142E4C;" d="M315.966,288.234l-3.774,0.364c-2.404,0.232-4.541-1.529-4.773-3.933l-1.388-12.193l8.128-0.785
						L315.966,288.234z"/>
					<path style="fill:#F4B1A2;" d="M319.148,287.782c-1.038,4.082-4.45,6.737-7.619,5.93c-3.17-0.806-4.898-4.769-3.859-8.85
						c1.038-4.082,4.45-6.737,7.619-5.93C318.458,279.738,320.186,283.701,319.148,287.782z"/>
					<path style="fill:#142E4C;" d="M308.201,298.133L308.201,298.133c-1.144,0.11-2.161-0.727-2.271-1.871l-2.486-23.572l4.142-0.4
						l2.486,23.572C310.183,297.005,309.345,298.022,308.201,298.133z"/>
					<path style="fill:#142E4C;" d="M308.964,285.022l-3.712,0.358c-2.404,0.232-4.498-1.079-4.677-2.929l-1.116-9.377l8.127-0.785
						L308.964,285.022z"/>
				</g>
				<path style="fill:#86C5DB;" d="M320.69,275.33c-1.25,0.47-2.48,0.91-3.68,1.32c-25.3,8.65-40.14,4.61-44.31,3.06
					c-0.74-0.28-1.26-0.94-1.33-1.73l-0.17-1.8c-1.32-13.59,8.64-25.66,22.23-26.98l1.41-0.14c2.83-0.27,5.59-0.06,8.2,0.58
					c9.95,2.41,17.75,10.9,18.78,21.66l0.19,1.91C322.1,274.13,321.56,275.01,320.69,275.33z"/>
				<path style="fill:#6FB6C9;" d="M320.69,275.33c-1.25,0.47-2.48,0.91-3.68,1.32c2.01-13.54-7.25-22.45-13.97-27.01
					c9.95,2.41,17.75,10.9,18.78,21.66l0.19,1.91C322.1,274.13,321.56,275.01,320.69,275.33z"/>
			</g>
		</g>
		<g>
			<polygon style="fill:#57AEA2;" points="279.51,434.718 264.275,433.963 196.681,464.061 212.535,463.771 			"/>
			<polygon style="fill:#70C8BD;" points="267.551,466.364 254.805,467.14 238.084,453.258 230.52,448.959 226.353,446.589 
				195.469,429.035 211.069,429.807 234.334,443.034 238.388,445.341 238.496,445.398 238.501,445.398 245.869,449.588 
				246.036,449.685 270.203,463.452 			"/>
			<polygon style="fill:#57AEA2;" points="270.202,463.454 257.441,464.227 238.142,453.227 230.602,448.922 230.453,448.836 
				230.748,448.854 230.76,448.854 245.593,449.431 			"/>
			<g>
				<g>
					<polygon style="fill:#57AEA2;" points="267.996,429.723 237.89,443.119 211.886,428.337 210.857,429.856 236.258,444.286 
						237.848,443.657 239.123,444.564 268.877,431.331 					"/>
					<path style="fill:#EDF1C5;" d="M267.996,429.723c0,0-29.683,13.146-29.683,13.146c0.091-4.117,3.25-6.897,6.868-8.266
						c1.847-0.698,3.896-0.94,5.813-1.431c3.542-0.907,7.036-2.094,10.598-2.92L267.996,429.723z"/>
					<polygon style="fill:#DBE9B0;" points="198.931,427.675 211.95,428.319 234.447,441.108 227.11,443.664 					"/>
					<path style="fill:#EDF1C5;" d="M205.662,428.66c2.226,0.544,4.183,1.855,6.312,2.663c5.644,2.142,15.687,4.443,15.084,12.341
						l-28.128-15.989C198.931,427.675,205.662,428.66,205.662,428.66z"/>
					<path style="fill:#DBE9B0;" d="M211.95,428.319c2.553,0.919,5.098,1.861,7.681,2.696c3.783,1.223,8.555,1.578,11.518,4.469
						c0.636,0.621,1.173,1.348,1.515,2.172c0.131,0.314,0.386,2.69,0.416,2.708L211.95,428.319z"/>
					<path style="fill:#57AEA2;" d="M259.623,429.173l-32.564,14.49l-28.128-15.989l-1.112,1.642l26.876,15.269
						c0.378,0.215,0.833,0.247,1.238,0.087l1.081-0.427l0.763,0.542c0.382,0.271,0.878,0.321,1.306,0.131l31.494-14.006
						L259.623,429.173z"/>
					<path style="fill:#EDF1C5;" d="M259.417,429.265l-32.307,14.398c0.09-4.044,3.191-7.601,6.917-8.903
						c2.123-0.742,4.486-0.695,6.684-1.157c2.434-0.512,4.715-1.372,7.049-2.191c1.657-0.582,3.324-1.159,5.036-1.556
						L259.417,429.265z"/>
					<polygon style="fill:#3E7D71;" points="228.865,444.994 239.123,444.564 268.877,431.331 260.576,430.913 					"/>
				</g>
				<polygon style="fill:#18937C;" points="259.623,429.173 267.996,429.723 268.877,431.331 260.576,430.913 				"/>
			</g>
			<polygon style="fill:#93D3CD;" points="264.275,433.963 262.266,430.632 194.563,460.875 196.681,464.061 			"/>
			<polygon style="fill:#93D3CD;" points="257.441,464.227 254.805,467.134 254.805,467.14 254.793,467.141 233.73,455.21 
				226.148,450.906 221.987,448.536 221.981,448.536 193.342,432.264 195.469,429.035 226.353,446.589 230.52,448.959 
				238.084,453.258 			"/>
			<polygon style="fill:#61B5A7;" points="279.51,434.718 264.275,433.963 230.52,448.959 245.593,449.431 			"/>
			<polygon style="fill:#70C8BD;" points="262.266,430.632 277.501,431.387 279.51,434.718 264.275,433.963 			"/>
		</g>
	</g>
	<g>
		<path style="opacity:0.5;fill:#A6E2E2;" d="M178.466,467.433H52.61c-1.647,0-2.982-1.335-2.982-2.982l0,0
			c0-1.647,1.335-2.982,2.982-2.982h125.856c1.647,0,2.982,1.335,2.982,2.982l0,0C181.448,466.097,180.113,467.433,178.466,467.433z
			"/>
		<g>
			<g>
				<path style="fill:#F9A11B;" d="M103.432,464.274c0,0-11.728-20.903-39.49-10.356C63.942,453.918,79.487,474.173,103.432,464.274
					z"/>
				<path style="fill:#EA8023;" d="M100.18,463.421c0,0-13.981-6.419-32.987-8.651C67.193,454.771,78.645,459.704,100.18,463.421z"
					/>
			</g>
			<g>
				<path style="fill:#F9A11B;" d="M103.429,464.267c0,0,5.207-33.093-34.394-45.53C69.035,418.738,68.579,454.422,103.429,464.267z
					"/>
				<path style="fill:#EA8023;" d="M100.598,460.519c0,0-9.796-19.142-28.731-38.033C71.867,422.486,80.171,437.809,100.598,460.519
					z"/>
			</g>
			<g>
				<path style="fill:#F9A11B;" d="M103.407,464.299c0,0,17.34-19.576-3.478-44.407C99.929,419.892,84.625,443.17,103.407,464.299z"
					/>
				<path style="fill:#EA8023;" d="M103.121,460.643c0,0,1.606-16.709-2.905-37.095C100.216,423.548,99.234,437.117,103.121,460.643
					z"/>
			</g>
		</g>
		<g>
			<rect x="104.461" y="394.751" style="fill:#448B87;" width="44.529" height="63"/>
			<rect x="115.694" y="394.751" style="fill:#82E097;" width="22.063" height="63"/>
			<g>
				<path style="fill:#409694;" d="M141.617,375.576c-0.154-0.13-0.308-0.259-0.462-0.388c-3.257-2.724-6.296-5.582-9.152-8.707
					c-1.162-1.271-2.324-2.543-3.486-3.814c-0.402-0.44-1.211-1.76-1.791-1.959c-4.62,5.055-9.123,10.05-14.391,14.446
					c-2.598,2.168-5.176,4.456-6.931,7.349c-2.507,4.134-1.904,7.793-0.942,12.248h44.529c0.967-4.482,1.567-8.146-0.976-12.298
					C146.372,379.77,144.024,377.608,141.617,375.576z"/>
				<path style="fill:#69CE9F;" d="M134.063,373.673c-1.147-1.882-2.335-3.741-3.388-5.678c-0.842-1.549-1.673-3.103-2.516-4.652
					c-0.184-0.337-0.845-1.639-1.434-2.634c-1.275,2.342-2.55,4.684-3.826,7.026c-2.247,4.126-5.183,7.93-6.915,12.351
					c-0.969,2.472-1.564,5.126-1.521,7.79c0.038,2.346,0.76,4.593,1.231,6.876h11.031h11.032c0.507-2.461,1.296-4.971,1.274-7.498
					c-0.027-3.045-0.971-6.035-2.281-8.759C135.951,376.832,135.022,375.244,134.063,373.673z"/>
			</g>
			<polygon style="fill:#409694;" points="151.32,464.528 102.131,464.528 104.461,457.751 148.99,457.751 			"/>
			<polygon style="fill:#69CE9F;" points="138.903,464.528 114.548,464.528 115.702,457.751 137.749,457.751 			"/>
			<path style="fill:#FDFFCA;" d="M131.451,450.037l-3.145,3.521c-0.842,0.943-2.317,0.943-3.16,0l-3.145-3.52
				c-2.626-2.939-4.078-6.743-4.078-10.684v-26.205c0-3.941,1.452-7.745,4.078-10.684l3.145-3.52c0.842-0.943,2.317-0.943,3.16,0
				l3.145,3.52c2.626,2.939,4.078,6.743,4.078,10.684v26.205C135.528,443.295,134.077,447.098,131.451,450.037z"/>
			<path style="fill:#FDFFCA;" d="M112.598,448.742l-1.059,2.881c-0.465,1.266-2.256,1.266-2.722,0l-1.059-2.881
				c-0.795-2.162-1.201-4.448-1.201-6.751v-31.48c0-2.303,0.407-4.589,1.201-6.751l1.059-2.881c0.465-1.266,2.256-1.266,2.722,0
				l1.059,2.881c0.795,2.162,1.201,4.448,1.201,6.751v31.48C113.799,444.294,113.392,446.58,112.598,448.742z"/>
			<path style="fill:#FDFFCA;" d="M145.811,448.742l-1.059,2.881c-0.465,1.266-2.256,1.266-2.722,0l-1.059-2.881
				c-0.795-2.162-1.201-4.447-1.201-6.751v-31.48c0-2.303,0.407-4.589,1.201-6.751l1.059-2.881c0.465-1.266,2.257-1.266,2.722,0
				l1.059,2.881c0.795,2.162,1.201,4.448,1.201,6.751v31.48C147.012,444.294,146.606,446.58,145.811,448.742z"/>
		</g>
	</g>
</g>
</svg>
