<?xml version="1.0" encoding="utf-8"?>
<!-- Generator: Adobe Illustrator 27.5.0, SVG Export Plug-In . SVG Version: 6.00 Build 0)  -->
<svg version="1.1" xmlns="http://www.w3.org/2000/svg" xmlns:xlink="http://www.w3.org/1999/xlink" x="0px" y="0px"
	 viewBox="0 0 500 500" style="enable-background:new 0 0 500 500;" xml:space="preserve">
<g id="BACKGROUND">
	<g>
		<rect x="0.003" style="fill:#C1DBD4;" width="500" height="500"/>
		<g>
			<path style="fill:#BBD4CD;" d="M128.283,0c-3.19,8.01-7.21,16.12-12.11,24.08c-2.64,4.16-5.58,8.22-8.88,12.09
				s-6.95,7.56-11.06,10.82c-4.09,3.25-8.53,6.03-13.22,8.07c-4.69,2.04-9.65,3.32-14.6,3.7c-2.51,0.19-4.9,0.18-7.28,0.32
				c-2.38,0.13-4.74,0.33-7.07,0.58c-4.65,0.5-9.19,1.19-13.57,2.07c-15.99,3.19-29.98,8.87-40.49,16.04v-1.24
				c10.52-7.17,24.42-12.85,40.23-16.06c4.42-0.91,9-1.63,13.69-2.14c2.35-0.26,4.73-0.47,7.14-0.6c2.41-0.15,4.87-0.15,7.24-0.34
				c4.79-0.38,9.59-1.62,14.15-3.62c4.56-1.98,8.89-4.69,12.91-7.88c8.03-6.43,14.41-14.38,19.64-22.54
				c4.77-7.71,8.72-15.58,11.87-23.35H128.283z"/>
		</g>
		<g>
			<path style="fill:#BBD4CD;" d="M500.003,170.69v1.07c-6.14-2.04-12.65-4.78-19.09-8.63c-3.61-2.07-7.06-4.66-10.5-7.45
				c-3.36-2.88-6.57-6.15-9.57-9.72c-6.03-7.14-11.21-15.5-16.04-24.38c-4.86-8.87-9.39-18.3-14.56-27.64
				c-5.16-9.33-10.83-18.14-17.7-25.44c-3.43-3.64-7.15-6.88-11.1-9.62c-3.93-2.76-8.13-4.93-12.33-6.86
				c-8.39-3.82-16.75-6.85-23.93-11.1c-1.81-1.03-3.46-2.24-5.13-3.35c-0.79-0.63-1.57-1.24-2.35-1.85
				c-0.79-0.59-1.51-1.25-2.22-1.9c-2.92-2.53-5.35-5.36-7.58-8.09c-4.32-5.61-7.32-11.32-9.33-16.55
				c-1.27-3.28-2.15-6.37-2.77-9.18h0.66c0.66,2.73,1.56,5.72,2.84,8.9c2.06,5.13,5.08,10.73,9.38,16.21
				c2.22,2.68,4.63,5.43,7.52,7.9c0.7,0.64,1.42,1.27,2.2,1.85c0.76,0.59,1.53,1.19,2.31,1.8c1.65,1.08,3.27,2.26,5.06,3.26
				c7.08,4.13,15.39,7.1,23.88,10.93c4.23,1.92,8.53,4.11,12.55,6.93c4.04,2.78,7.84,6.08,11.34,9.78
				c7.01,7.41,12.74,16.32,17.93,25.7c5.2,9.39,9.72,18.82,14.54,27.66c4.79,8.85,9.9,17.14,15.82,24.21
				c2.95,3.54,6.09,6.76,9.38,9.61c3.38,2.76,6.75,5.33,10.3,7.39C487.733,165.9,494.023,168.63,500.003,170.69z"/>
		</g>
		<rect x="0.003" y="409.35" style="fill:#C8E3DC;" width="500" height="90.65"/>
		<g>
			<path style="fill:#D3F0E8;" d="M500.003,459.41v0.93c-3.92,0.23-7.98,0.47-12.16,0.71c-26.89,1.6-58.89,3.94-94.42,6.61
				c-17.76,1.32-36.41,2.73-55.76,4.02c-9.67,0.68-19.52,1.25-29.51,1.88c-10,0.54-20.14,1.16-30.42,1.59
				c-41.08,1.98-80.3,2.43-115.93,1.27c-8.89-0.25-17.65-0.49-26.01-2.17c-8.41-1.62-15.92-5.28-23.09-8.57
				c-7.14-3.39-14.33-5.94-21.34-8.09c-1.76-0.49-3.51-0.98-5.24-1.46c-1.73-0.48-3.47-0.83-5.18-1.25
				c-3.41-0.86-6.81-1.42-10.1-2.08c-13.25-2.34-25.4-3.42-36.05-4.31c-10.67-0.82-19.87-1.53-27.38-2.1
				c-2.69-0.23-5.17-0.45-7.41-0.67v-0.46c2.25,0.19,4.74,0.38,7.45,0.58c7.52,0.51,16.72,1.14,27.4,1.86
				c10.67,0.82,22.85,1.83,36.16,4.12c3.31,0.65,6.73,1.2,10.16,2.05c1.72,0.41,3.47,0.75,5.22,1.23c1.74,0.48,3.5,0.96,5.28,1.45
				c7.05,2.13,14.33,4.69,21.52,8.07c7.2,3.29,14.6,6.86,22.84,8.42c8.22,1.63,16.92,1.86,25.81,2.09
				c35.6,1.09,74.77,0.6,115.83-1.38c10.27-0.43,20.4-1.05,30.4-1.59c9.99-0.62,19.83-1.18,29.5-1.86
				c19.34-1.27,37.99-2.65,55.76-3.93c35.53-2.6,67.54-4.84,94.45-6.31C491.983,459.84,496.053,459.61,500.003,459.41z"/>
		</g>
		<g>
			<path style="fill:#D3F0E8;" d="M500.003,476.86v1.16c-0.59-0.04-1.18-0.07-1.77-0.09c-7.92-0.41-16.4-0.61-25.32-0.47
				c-17.83,0.27-37.44,1.59-57.89,4.05c-36.24,4.26-68.93,11.58-93.91,18.49h-3.92c25.38-7.42,59.55-15.41,97.66-19.88
				c20.5-2.47,40.15-3.75,58.05-3.95c8.95-0.11,17.45,0.14,25.4,0.59C498.873,476.79,499.443,476.82,500.003,476.86z"/>
		</g>
	</g>
</g>
<g id="OBJECTS">
	<g>
		<g>
			<rect x="143.353" y="160.936" style="fill:#90B0A8;" width="213.46" height="241.56"/>
			<path style="fill:#90B0A8;" d="M375.003,181.186v13.16c0,11.35-7.72,20.89-18.19,23.65c-0.66,0.18-1.33,0.33-2.01,0.44
				c-1.23,0.23-2.5,0.35-3.8,0.37c-0.15,0.01-0.31,0.01-0.46,0.01h-201.08c-2.11,0-4.16-0.27-6.11-0.77
				c-10.56-2.71-18.36-12.29-18.36-23.7v-13.16c0-2.81,0.13-5.6,0.38-8.35c1.19-13.19,5.19-25.7,11.46-36.84
				c11.76-20.89,31.52-36.95,55.81-43.67c2.3-0.64,4.65-1.24,7.05-1.81c29.49-6.96,45.54-25.03,49.74-30.38
				c0.22-0.28,0.41-0.53,0.57-0.73c0.15,0.2,0.34,0.45,0.56,0.73c4.21,5.35,20.26,23.42,49.75,30.38c2.4,0.57,4.75,1.17,7.05,1.81
				C347.323,103.376,375.003,139.726,375.003,181.186z"/>
			<g>
				<g>
					<g>
						<path style="fill:#D3F0E8;" d="M134.266,368.865c-0.049,0.001-0.102-0.499-0.159-1.451c-0.057-0.952-0.118-2.356-0.182-4.164
							c-0.126-3.616-0.271-8.849-0.415-15.317c-0.286-12.934-0.604-30.807-0.62-50.555c-0.011-19.748,0.385-37.628,0.956-50.559
							c0.282-6.465,0.569-11.695,0.837-15.305c0.129-1.805,0.241-3.206,0.333-4.155c0.092-0.949,0.163-1.446,0.212-1.443
							c0.048,0.003,0.071,0.505,0.071,1.458c0,0.953-0.024,2.358-0.07,4.166c-0.092,3.619-0.226,8.849-0.391,15.312
							c-0.316,12.928-0.555,30.791-0.544,50.526c0.081,19.737,0.155,37.604,0.209,50.542c0.017,6.469,0.011,11.704-0.031,15.322
							c-0.02,1.809-0.047,3.214-0.081,4.167S134.315,368.864,134.266,368.865z"/>
					</g>
				</g>
			</g>
			<g>
				<g>
					<g>
						<path style="fill:#D3F0E8;" d="M364.282,368.688c-0.388-0.01,0.106-32.075,1.102-71.62
							c0.996-39.545,2.118-71.595,2.505-71.585c0.388,0.01-0.106,32.075-1.102,71.62
							C365.791,336.648,364.67,368.697,364.282,368.688z"/>
					</g>
				</g>
			</g>
			<g>
				<g>
					<g>
						<path style="fill:#D3F0E8;" d="M152.742,106.262c0.062,0.074-0.88,1.039-2.631,2.713c-0.439,0.417-0.928,0.88-1.462,1.386
							c-0.522,0.519-1.058,1.116-1.652,1.736c-1.169,1.26-2.577,2.62-3.934,4.306c-0.7,0.823-1.433,1.684-2.197,2.582
							c-0.759,0.902-1.462,1.91-2.239,2.913c-1.587,1.984-3.052,4.27-4.648,6.634c-3.037,4.829-6.043,10.35-8.612,16.415
							c-2.504,6.093-4.312,12.113-5.608,17.668c-0.557,2.798-1.151,5.447-1.445,7.971c-0.166,1.258-0.388,2.467-0.494,3.641
							c-0.101,1.175-0.198,2.302-0.29,3.378c-0.243,2.151-0.219,4.108-0.293,5.825c-0.022,0.859-0.069,1.659-0.071,2.395
							c0.016,0.736,0.03,1.409,0.043,2.014c0.041,2.422,0.019,3.771-0.078,3.779c-0.097,0.008-0.258-1.326-0.468-3.755
							c-0.05-0.608-0.105-1.284-0.166-2.023c-0.038-0.74-0.03-1.546-0.045-2.412c-0.001-1.731-0.094-3.709,0.087-5.885
							c0.064-1.09,0.132-2.232,0.202-3.421c0.08-1.189,0.276-2.415,0.419-3.691c0.247-2.56,0.805-5.25,1.335-8.09
							c1.242-5.641,3.038-11.758,5.576-17.933c2.603-6.148,5.687-11.727,8.823-16.578c1.646-2.375,3.165-4.663,4.811-6.64
							c0.806-0.999,1.54-2.001,2.329-2.895c0.796-0.887,1.56-1.738,2.289-2.55c1.419-1.66,2.891-2.985,4.122-4.202
							c0.626-0.598,1.193-1.171,1.746-1.665c0.568-0.477,1.087-0.913,1.555-1.305C151.618,107.011,152.68,106.187,152.742,106.262z"
							/>
					</g>
				</g>
			</g>
			<g>
				<g>
					<g>
						<path style="fill:#D3F0E8;" d="M186.635,86.45c0.141,0.38-5.68,2.827-12.635,6.285c-6.965,3.438-12.439,6.586-12.656,6.244
							c-0.204-0.309,4.989-4.024,12.033-7.502C180.411,87.98,186.513,86.1,186.635,86.45z"/>
					</g>
				</g>
			</g>
			<g>
				<g>
					<g>
						<path style="fill:#D3F0E8;" d="M245.775,39.985c0.084,0.024-0.056,0.874-0.482,2.368c-0.422,1.495-1.188,3.62-2.392,6.133
							c-2.369,5.034-6.826,11.5-13.188,17.173c-6.356,5.679-13.093,9.523-18.065,11.936c-2.494,1.209-4.558,2.083-6.004,2.635
							c-1.446,0.552-2.269,0.798-2.306,0.712c-0.087-0.201,3.024-1.614,7.856-4.229c4.816-2.618,11.359-6.537,17.583-12.099
							c6.226-5.555,10.692-11.756,13.241-16.579C244.607,43.216,245.539,39.909,245.775,39.985z"/>
					</g>
				</g>
			</g>
			<g>
				<g>
					<g>
						<path style="fill:#D3F0E8;" d="M282.798,74.986c-0.096,0.149-2.26-1.005-5.529-3.242c-3.268-2.233-7.6-5.609-11.968-9.798
							c-4.362-4.195-7.91-8.387-10.274-11.562c-2.368-3.175-3.608-5.292-3.463-5.393c0.352-0.259,6.051,7.675,14.71,15.943
							C274.884,69.251,283.043,74.624,282.798,74.986z"/>
					</g>
				</g>
			</g>
			<g>
				<g>
					<g>
						<path style="fill:#D3F0E8;" d="M355.209,114.29c-0.21,0.147-2.386-3.276-6.961-7.853
							c-4.529-4.604-11.683-10.093-20.484-14.576c-8.8-4.49-17.321-7.397-23.474-9.476c-3.083-1.029-5.579-1.861-7.312-2.439
							c-1.724-0.591-2.667-0.957-2.639-1.051c0.027-0.092,1.02,0.096,2.793,0.526c1.773,0.43,4.324,1.103,7.456,2.017
							c6.247,1.843,14.891,4.62,23.818,9.174c8.931,4.547,16.142,10.28,20.558,15.136c2.227,2.413,3.836,4.534,4.842,6.065
							C354.814,113.342,355.281,114.243,355.209,114.29z"/>
					</g>
				</g>
			</g>
			<g>
				<g>
					<g>
						<path style="fill:#D3F0E8;" d="M375.688,216.729c-0.094-0.075,0.737-1.141,1.983-3.212c1.238-2.071,2.845-5.2,4.068-9.335
							c1.246-4.121,2.09-9.224,2.133-14.928c0.068-5.707-0.624-11.976-1.702-18.509c-1.086-6.54-2.232-12.756-3.62-18.311
							c-1.382-5.559-3.054-10.443-4.814-14.39c-1.739-3.958-3.565-6.962-4.921-8.965c-0.645-1.028-1.234-1.763-1.588-2.299
							c-0.363-0.528-0.537-0.822-0.5-0.853c0.037-0.031,0.283,0.201,0.72,0.675c0.427,0.48,1.091,1.168,1.812,2.158
							c1.508,1.927,3.494,4.9,5.378,8.867c1.904,3.955,3.701,8.884,5.166,14.484c1.473,5.602,2.662,11.841,3.753,18.407
							c1.085,6.572,1.751,12.941,1.609,18.757c-0.115,5.816-1.082,11.031-2.479,15.205c-1.374,4.192-3.155,7.322-4.555,9.333
							c-0.704,1.006-1.293,1.755-1.731,2.23C375.968,216.524,375.725,216.76,375.688,216.729z"/>
					</g>
				</g>
			</g>
			<g>
				<g>
					<g>
						<path style="fill:#D3F0E8;" d="M128.55,221.672c-0.108,0.143-1.074-0.336-2.405-1.446c-1.328-1.103-2.976-2.886-4.342-5.164
							c-1.36-2.281-2.151-4.577-2.493-6.269c-0.347-1.697-0.312-2.775-0.135-2.803c0.415-0.075,1.216,4.038,3.833,8.351
							C125.568,218.689,128.813,221.342,128.55,221.672z"/>
					</g>
				</g>
			</g>
		</g>
		<g>
			<path style="fill:#9FC2B9;" d="M182.043,304.576h-38.69v-29.58C155.783,280.086,182.043,304.576,182.043,304.576z"/>
			<path style="fill:#9FC2B9;" d="M216.663,172.836h-91.29c1.19-13.19,5.19-25.7,11.46-36.84c36.93-9.81,50.12,17.61,52.93,24.94
				c0.43,1.1,0.62,1.75,0.62,1.75C208.903,155.516,216.663,172.836,216.663,172.836z"/>
			<path style="fill:#9FC2B9;" d="M356.813,218.536v50.46h-87.59c0,0,5.97-16.13,22.69-11.35c0,0,7.21-29.735,41.81-20.31
				c0,0,4.3-15.91,17.27-18.53h0.01c1.19-0.25,2.45-0.38,3.79-0.37h0.01C355.453,218.436,356.123,218.476,356.813,218.536z"/>
		</g>
		<g>
			<path style="fill:#FFFFFF;" d="M202.599,220.66c-3.088,1.376-4.578,2.866-5.953,5.953c-0.318,0.714-1.356,0.714-1.674,0
				c-1.376-3.088-2.866-4.578-5.954-5.953c-0.714-0.318-0.714-1.356,0-1.675c3.088-1.376,4.578-2.866,5.954-5.953
				c0.318-0.714,1.356-0.714,1.674,0c1.376,3.088,2.866,4.578,5.953,5.953C203.313,219.303,203.313,220.341,202.599,220.66z"/>
			<g>
				<path style="fill:#FFFFFF;" d="M291.954,138.752c-3.659,1.581-5.332,3.254-6.913,6.913c-0.305,0.706-1.296,0.706-1.601,0
					c-1.581-3.659-3.254-5.332-6.913-6.913c-0.707-0.305-0.707-1.295,0-1.601c3.659-1.581,5.332-3.254,6.913-6.913
					c0.305-0.706,1.295-0.706,1.601,0c1.581,3.659,3.254,5.332,6.913,6.913C292.66,137.457,292.66,138.447,291.954,138.752z"/>
				<path style="fill:#FFFFFF;" d="M318.94,150.057c0,1.559-1.264,2.822-2.822,2.822c-1.559,0-2.823-1.264-2.823-2.822
					c0-1.559,1.264-2.823,2.823-2.823C317.676,147.234,318.94,148.498,318.94,150.057z"/>
			</g>
			<path style="fill:#FFFFFF;" d="M217.209,113.428c0,1.559-1.264,2.822-2.822,2.822c-1.559,0-2.823-1.264-2.823-2.822
				c0-1.559,1.264-2.823,2.823-2.823C215.946,110.605,217.209,111.869,217.209,113.428z"/>
			<path style="fill:#FFFFFF;" d="M290.166,195.01c0,11.985-9.708,21.693-21.693,21.693c-11.977,0-21.693-9.708-21.693-21.693
				c0-11.977,9.716-21.693,21.693-21.693c0.721,0,1.426,0.032,2.131,0.105c-7.982,1.337-14.068,8.282-14.068,16.645
				c0,9.327,7.552,16.888,16.879,16.888c8.371,0,15.316-6.086,16.645-14.084C290.133,193.576,290.166,194.289,290.166,195.01z"/>
		</g>
	</g>
	<g>
		<path style="fill:#90B0A8;" d="M460.393,257.816v140.02h-68.5v-140.02c0-5.91,1.5-11.47,4.14-16.33c1.58-2.91,3.57-5.56,5.89-7.89
			c6.2-6.2,14.77-10.03,24.22-10.03C445.063,223.566,460.393,238.896,460.393,257.816z"/>
		<path style="fill:#FFFFFF;" d="M426.06,344.048c-2.287,0.988-3.332,2.034-4.32,4.321c-0.191,0.441-0.81,0.441-1,0
			c-0.988-2.287-2.034-3.332-4.321-4.321c-0.441-0.191-0.441-0.81,0-1c2.287-0.988,3.332-2.034,4.321-4.321
			c0.191-0.441,0.81-0.441,1,0c0.988,2.287,2.034,3.333,4.32,4.321C426.502,343.238,426.502,343.857,426.06,344.048z"/>
		<path style="fill:#FFFFFF;" d="M434.807,319.943c0,1.559-1.264,2.823-2.822,2.823c-1.559,0-2.823-1.264-2.823-2.823
			c0-1.559,1.264-2.823,2.823-2.823C433.544,317.12,434.807,318.384,434.807,319.943z"/>
		<path style="fill:#9FC2B9;" d="M425.203,268.996h-33.31v-11.18c0-5.91,1.5-11.47,4.14-16.33
			C415.243,244.666,425.203,268.996,425.203,268.996z"/>
		<g>
			<g>
				<g>
					<path style="fill:#D3F0E8;" d="M467.584,249.217c-0.251,0.026-0.485-2.25-1.71-5.659c-0.158-0.424-0.324-0.867-0.496-1.329
						c-0.181-0.458-0.417-0.917-0.633-1.403c-0.411-0.981-0.984-1.965-1.551-3.016c-1.222-2.053-2.676-4.253-4.472-6.359
						c-3.566-4.232-7.493-7.429-10.543-9.393c-3.04-1.994-5.146-2.864-5.062-3.083c0.044-0.146,2.316,0.405,5.577,2.234
						c3.264,1.796,7.423,4.971,11.103,9.339c1.852,2.171,3.328,4.472,4.527,6.632c0.557,1.106,1.108,2.145,1.488,3.182
						c0.2,0.513,0.418,0.998,0.578,1.483c0.149,0.489,0.291,0.958,0.427,1.407C467.84,246.868,467.719,249.22,467.584,249.217z"/>
				</g>
			</g>
		</g>
		<g>
			<g>
				<g>
					<path style="fill:#D3F0E8;" d="M468.28,372.945c-0.097-0.003-0.146-1.312-0.153-3.675c0.016-2.367,0.038-5.783,0.066-10.004
						c0.091-8.445,0.225-20.109,0.262-32.993c0.034-12.884-0.036-24.549-0.081-32.994c-0.005-4.22-0.008-7.636-0.011-10.004
						c0.019-2.363,0.076-3.671,0.173-3.674c0.097-0.003,0.225,1.3,0.374,3.66c0.151,2.359,0.309,5.776,0.457,9.999
						c0.299,8.446,0.526,20.121,0.493,33.018c-0.037,12.897-0.328,24.57-0.673,33.014c-0.172,4.222-0.348,7.637-0.512,9.996
						C468.512,371.646,468.377,372.948,468.28,372.945z"/>
				</g>
			</g>
		</g>
		<g>
			<g>
				<g>
					<path style="fill:#D3F0E8;" d="M468.216,396.842c-0.377,0.044-0.94-2.24-0.839-5.106c0.092-2.867,0.809-5.107,1.182-5.038
						c0.39,0.068,0.309,2.33,0.221,5.085C468.682,394.539,468.61,396.801,468.216,396.842z"/>
				</g>
			</g>
		</g>
		<g>
			<g>
				<g>
					<path style="fill:#D3F0E8;" d="M385.886,372.993c-0.097,0.001-0.216-1.663-0.349-4.674c-0.136-3.011-0.288-7.369-0.445-12.756
						c-0.308-10.773-0.634-25.659-0.743-42.106c-0.097-16.448,0.042-31.344,0.489-42.122c0.214-5.389,0.5-9.747,0.764-12.753
						c0.305-3.005,0.519-4.659,0.616-4.65c0.097,0.009,0.066,1.679-0.071,4.684c-0.096,3.01-0.231,7.363-0.317,12.746
						c-0.193,10.766-0.174,25.647-0.077,42.085c0.129,16.439,0.247,31.321,0.332,42.098c0.03,5.388,0.031,9.749-0.001,12.763
						C386.049,371.324,385.983,372.991,385.886,372.993z"/>
				</g>
			</g>
		</g>
		<g>
			<g>
				<g>
					<path style="fill:#D3F0E8;" d="M430.063,217.861c-0.04,0.229-2.368-0.195-6.121-0.081c-3.736,0.094-8.929,0.92-14.131,3.268
						c-5.206,2.345-9.299,5.638-11.985,8.254c-2.702,2.62-4.13,4.5-4.311,4.367c-0.135-0.09,1.015-2.192,3.598-5.058
						c2.561-2.854,6.705-6.404,12.121-8.843c5.415-2.445,10.863-3.143,14.708-2.98C427.815,216.93,430.103,217.713,430.063,217.861z
						"/>
				</g>
			</g>
		</g>
	</g>
	<g>
		<path style="fill:#90B0A8;" d="M104.333,257.816v140.02h-68.51v-140.02c0-9.46,3.83-18.02,10.03-24.22
			c6.2-6.2,14.77-10.03,24.23-10.03C88.993,223.566,104.333,238.896,104.333,257.816z"/>
		<path style="fill:#FFFFFF;" d="M74.654,350.381c-2.287,0.988-3.332,2.034-4.321,4.321c-0.191,0.441-0.81,0.441-1.001,0
			c-0.988-2.287-2.034-3.332-4.321-4.321c-0.442-0.191-0.442-0.81,0-1c2.287-0.988,3.332-2.034,4.321-4.321
			c0.191-0.441,0.81-0.441,1.001,0c0.988,2.287,2.034,3.333,4.321,4.321C75.095,349.571,75.095,350.19,74.654,350.381z"/>
		<path style="fill:#9FC2B9;" d="M104.333,282.276v22.3h-39.21c9.62-14.97,25.66-13.55,25.66-13.55
			C93.333,285.936,98.403,283.376,104.333,282.276z"/>
		<g>
			<g>
				<g>
					<path style="fill:#D3F0E8;" d="M111.893,267.045c-0.246-0.042,0.449-3.251,0.356-8.464c-0.067-5.18-1.199-12.443-4.771-19.525
						c-3.571-7.082-8.739-12.311-12.864-15.444c-4.137-3.173-7.13-4.521-7.017-4.745c0.037-0.08,0.82,0.17,2.17,0.786
						c1.351,0.612,3.247,1.642,5.435,3.159c4.368,2.994,9.836,8.284,13.53,15.612c3.696,7.327,4.7,14.868,4.511,20.16
						c-0.081,2.662-0.38,4.798-0.691,6.248C112.243,266.285,111.979,267.063,111.893,267.045z"/>
				</g>
			</g>
		</g>
		<g>
			<g>
				<g>
					<path style="fill:#D3F0E8;" d="M56.779,216.816c0.076,0.214-2.315,1.068-5.845,3.045c-3.526,1.964-8.126,5.212-12.169,9.868
						c-2.031,2.317-3.851,4.65-5.337,6.855c-1.478,2.214-2.6,4.334-3.33,6.199c-1.48,3.74-1.439,6.318-1.689,6.303
						c-0.134,0.032-0.545-2.631,0.755-6.639c0.639-1.989,1.716-4.246,3.179-6.567c1.475-2.318,3.289-4.707,5.37-7.08
						c4.162-4.795,9.041-8.045,12.761-9.818C54.21,217.184,56.735,216.662,56.779,216.816z"/>
				</g>
			</g>
		</g>
		<g>
			<g>
				<g>
					<path style="fill:#D3F0E8;" d="M28.601,393.993c-0.104-0.005-0.133-1.685-0.175-4.729c-0.013-3.047-0.031-7.448-0.054-12.885
						c-0.006-10.881,0.05-25.912,0.162-42.514c0.148-16.601,0.282-31.628,0.379-42.511c0.073-5.436,0.132-9.836,0.173-12.882
						c0.068-3.043,0.065-4.719,0.177-4.727c0.048-0.003,0.107,0.415,0.175,1.216c0.073,0.801,0.144,1.984,0.194,3.505
						c0.122,3.044,0.212,7.447,0.274,12.889c0.127,10.883,0.141,25.916,0.032,42.521c-0.112,16.604-0.325,31.636-0.573,42.516
						c-0.123,5.44-0.256,9.842-0.392,12.884c-0.063,1.52-0.133,2.702-0.201,3.502C28.707,393.576,28.649,393.995,28.601,393.993z"/>
				</g>
			</g>
		</g>
		<g>
			<g>
				<g>
					<path style="fill:#D3F0E8;" d="M111.086,365.173c-0.103-0.014-0.06-1.153,0.029-3.197c0.056-2.051,0.132-5.017,0.169-8.687
						c0.079-7.34,0.066-17.485,0.011-28.693c-0.07-11.208-0.133-21.352-0.179-28.703c-0.002-3.67-0.004-6.641-0.005-8.701
						c0.012-2.054,0.057-3.193,0.155-3.198c0.095-0.005,0.236,1.127,0.391,3.18c0.149,2.052,0.308,5.024,0.452,8.697
						c0.287,7.347,0.525,17.5,0.591,28.718c0.055,11.218-0.089,21.377-0.422,28.729c-0.164,3.676-0.392,6.649-0.617,8.699
						C111.402,364.067,111.175,365.186,111.086,365.173z"/>
				</g>
			</g>
		</g>
	</g>
	<g>
		<polygon style="fill:#A6BDB7;" points="415.425,442.01 63.045,442.01 74.657,423.065 408.922,423.065 		"/>
		<g>
			<g>
				<g>
					<path style="fill:#9DB3AD;" d="M401.913,438.139c-0.001,0.024-0.288,0.043-0.845,0.057c-0.558,0.006-1.385,0.016-2.469,0.028
						c-2.172,0.012-5.371,0.029-9.491,0.051c-8.246,0.019-20.176,0.047-34.917,0.082c-29.486-0.023-70.218-0.055-115.21-0.09
						c-44.993-0.119-85.726-0.333-115.21-0.636c-14.742-0.152-26.672-0.323-34.917-0.521c-4.124-0.122-7.319-0.161-9.496-0.316
						c-1.083-0.073-1.91-0.129-2.467-0.167c-0.554-0.045-0.835-0.08-0.832-0.104c0.945,0.002,72.97,0.152,162.926,0.34
						c44.992,0.118,85.724,0.283,115.209,0.502c14.742,0.109,26.672,0.23,34.917,0.365c4.123,0.077,7.321,0.12,9.495,0.213
						c1.084,0.049,1.911,0.086,2.469,0.112C401.631,438.086,401.915,438.115,401.913,438.139z"/>
				</g>
			</g>
		</g>
		<g>
			<g>
				<g>
					<path style="fill:#9DB3AD;" d="M109.779,429.605c0.046,0.37-2.604,0.944-5.859,0.427c-3.257-0.501-5.606-1.857-5.449-2.195
						c0.155-0.372,2.604,0.341,5.666,0.808C107.195,429.136,109.745,429.204,109.779,429.605z"/>
				</g>
			</g>
		</g>
		<g>
			<g>
				<g>
					<path style="fill:#9DB3AD;" d="M222.361,431.667c-0.034,0.381-3.527,0.383-7.771-0.24c-4.245-0.617-7.592-1.617-7.515-1.992
						c0.078-0.385,3.516-0.008,7.718,0.603C218.994,430.654,222.396,431.276,222.361,431.667z"/>
				</g>
			</g>
		</g>
	</g>
	<g>
		<path style="fill:#D68C6B;" d="M322.602,417.393l11.29,5.436l-0.482,1.447c-0.547,1.642,0.823,3.287,2.537,3.045l8.121-1.146
			c0,0,12.684,5.993,19.096,5.575c6.412-0.418,6.83-32.058-2.37-43.766c-9.199-11.708-23.556-14.775-23.556-14.775l-14.217,19.653
			L322.602,417.393z"/>
		<path style="fill:#D68C6B;" d="M293.929,427.863l3.311,6.274l44.608,0.167c1.028,0.004,1.877-0.801,1.929-1.828l0,0
			c0.048-0.949-0.605-1.791-1.537-1.981l-36.809-7.512L293.929,427.863z"/>
		<path style="fill:#382410;" d="M325.16,388.634c0,0,26.896,15.055,26.896,15.901s-3.33,4.05-3.33,4.05l-2.651-1.091
			c-6.867-2.827-14.757,0.04-18.208,6.616l-2.168,4.131c-0.401,0.764-1.318,1.096-2.116,0.766l-10.71-4.438
			c-3.761-1.559-5.266-6.062-3.238-9.592C312.837,399.401,318.174,391.927,325.16,388.634z"/>
		<path style="fill:#382410;" d="M344.947,369.62l14.641,8.265c0,0,31.408,5.668,28.811,34.006
			c-2.598,28.338-26.449,19.601-26.449,19.601l1.653-9.446c0,0-5.946,2.96-7.793-5.668c-1.224-5.716-7.945-8.29-7.945-8.29
			l2.511-19.258l-8.027-14.251L344.947,369.62z"/>
		<path style="fill:#FFFFFF;" d="M364.617,378.66l-3.844,53.68c0,0,14.599,5.548,24.679-6.593
			C396.871,411.993,392.599,384.746,364.617,378.66z"/>
		<ellipse style="fill:#D68C6B;" cx="351.129" cy="395.823" rx="6.606" ry="6.738"/>
		<path style="fill:#D68C6B;" d="M137.52,381.772l-15.055-8.015c-6.526-3.474-14.613-0.305-17.041,6.678l-10.982,27.723
			c-1.657,4.182-0.425,8.956,3.049,11.814l8.708,7.164c0.693,0.571,1.577,0.858,2.473,0.806l0,0
			c2.536-0.149,4.106-2.828,2.997-5.113l-1.383-4.627c-0.682-2.281-0.022-4.751,1.706-6.388l11.89-11.265l14.232-0.593
			L137.52,381.772z"/>
		<path style="fill:#FAD5C3;" d="M190.377,270.607c0,0-42.627,16.276-26.351,59.677l27.126,53.477l-63.679-8.15
			c0,0-7.75,21.313-3.1,41.464l92.038,11.154c16.245,2.01,30.012-11.862,27.879-28.091l-13.612-103.568L190.377,270.607z"/>
		<path style="fill:#FAE9E1;" d="M190.406,265.517c0,0,119.898,21.679,147.949,63.756l22.92,36.261l-46.442,31.328l-1.109-3.276
			c0,0-41.051,5.816-73.207-10.947c0,0-5.805-23.034-32.331-52.627C188.462,308.006,180.702,273.882,190.406,265.517z"/>
		<path style="fill:#FAD5C3;" d="M292.285,338.168l-30.987,35.482c-5.542,7.061-5.09,17.113,1.065,23.648l31.571,33.52l16.705-7.505
			l-15.583-37.678l23.942-20.473c8.94-7.645,8.878-21.487-0.131-29.051v0C310.925,329.442,299.107,330.357,292.285,338.168z"/>
		<polygon style="fill:#FFFFFF;" points="314.833,396.861 312.346,392.02 357.11,357.762 361.275,365.534 		"/>
		<g>
			<g>
				<g>
					<path style="fill:#EDC3AF;" d="M217.067,341.336c-0.16,0.125-1.755-1.667-4.331-4.548c-2.575-2.882-6.163-6.828-10.291-11.027
						c-4.132-4.195-8.019-7.846-10.86-10.467c-2.839-2.622-4.605-4.245-4.477-4.403c0.115-0.143,2.106,1.209,5.127,3.653
						c3.022,2.441,7.047,6.006,11.211,10.232c4.159,4.231,7.659,8.313,10.051,11.374
						C215.892,339.211,217.213,341.223,217.067,341.336z"/>
				</g>
			</g>
		</g>
		<g>
			<g>
				<g>
					<path style="fill:#EDC3AF;" d="M200.194,391.836c-0.318,0.24-2.236-1.819-4.767-4.136c-1.269-1.143-2.418-2.178-3.279-2.954
						c-0.415-0.391-0.717-0.649-0.96-0.8c-0.237-0.154-0.411-0.221-0.418-0.322c-0.01-0.089,0.181-0.222,0.566-0.204
						c0.383,0.01,0.896,0.224,1.396,0.523c1.013,0.58,2.338,1.514,3.647,2.724C199.017,389.087,200.5,391.617,200.194,391.836z"/>
				</g>
			</g>
		</g>
		<g>
			<g>
				<g>
					<path style="fill:#EDC3AF;" d="M203.573,388.454c-0.158,0.136-0.797-0.4-1.883-1.118c-1.081-0.727-2.643-1.596-4.488-2.363
						c-1.835-0.745-3.607-1.42-4.795-1.745c-1.206-0.325-1.968-0.083-2.063-0.266c-0.04-0.081,0.109-0.273,0.488-0.454
						c0.375-0.182,0.989-0.308,1.716-0.263c0.729,0.038,1.549,0.234,2.409,0.471c0.87,0.241,1.818,0.554,2.789,0.963
						c1.946,0.807,3.578,1.901,4.57,2.887C203.32,387.548,203.711,388.341,203.573,388.454z"/>
				</g>
			</g>
		</g>
		<g>
			<g>
				<g>
					<path style="fill:#EDC3AF;" d="M294.376,386.854c-0.207,0.347-1.908-0.352-4.071-0.332c-2.163-0.03-3.867,0.662-4.072,0.314
						c-0.092-0.16,0.241-0.572,0.965-0.973c0.717-0.402,1.841-0.746,3.111-0.745c1.27,0.004,2.392,0.354,3.108,0.758
						C294.138,386.281,294.468,386.694,294.376,386.854z"/>
				</g>
			</g>
		</g>
		<g>
			<g>
				<g>
					<path style="fill:#EDC3AF;" d="M295.359,386.406c-0.329,0.236-1.682-1.19-3.753-2.262c-2.051-1.11-3.991-1.428-3.98-1.832
						c0.007-0.185,0.534-0.355,1.402-0.325c0.863,0.027,2.059,0.296,3.236,0.917c1.175,0.624,2.07,1.462,2.577,2.16
						C295.353,385.764,295.508,386.296,295.359,386.406z"/>
				</g>
			</g>
		</g>
		<g>
			<g>
				<g>
					<path style="fill:#F2DACE;" d="M229.101,350.8c-0.153,0.091-1.487-1.754-3.28-4.961c-1.795-3.204-3.989-7.804-5.852-13.102
						c-1.855-5.301-3.016-10.264-3.616-13.887c-0.604-3.625-0.715-5.899-0.538-5.923c0.43-0.069,1.775,8.888,5.479,19.345
						C224.934,342.751,229.48,350.585,229.101,350.8z"/>
				</g>
			</g>
		</g>
		<g>
			<g>
				<g>
					<path style="fill:#F2DACE;" d="M235.286,354.783c-0.287,0.205-3.882-4.956-6.144-12.298
						c-2.306-7.329-2.275-13.618-1.923-13.612c0.423-0.035,1.014,6.06,3.263,13.195
						C232.681,349.218,235.653,354.572,235.286,354.783z"/>
				</g>
			</g>
		</g>
		<g>
			<g>
				<g>
					<path style="fill:#F2DACE;" d="M347.013,354.623c-0.365,0.115-1.598-2.788-2.52-6.545c-0.928-3.756-1.185-6.898-0.808-6.967
						c0.386-0.071,1.254,2.921,2.171,6.631C346.767,351.453,347.387,354.507,347.013,354.623z"/>
				</g>
			</g>
		</g>
		<g>
			<g>
				<g>
					<path style="fill:#F2DACE;" d="M284.41,340.078c0.173,0.084-0.316,1.504-1.269,3.726c-0.956,2.22-2.381,5.248-4.217,8.468
						c-1.839,3.219-3.791,5.975-5.373,7.827c-1.578,1.858-2.729,2.842-2.863,2.721c-0.155-0.138,0.724-1.346,2.073-3.322
						c1.355-1.973,3.132-4.752,4.945-7.924c1.81-3.174,3.363-6.108,4.545-8.21C283.429,341.26,284.234,339.992,284.41,340.078z"/>
				</g>
			</g>
		</g>
		<g>
			<g>
				<g>
					<path style="fill:#C27F61;" d="M353.983,395.805c0.055,0.186-0.381,0.497-1.13,0.848c-0.374,0.176-0.827,0.362-1.335,0.548
						c-0.257,0.089-0.525,0.182-0.802,0.278c-0.146,0.046-0.294,0.093-0.444,0.141c-0.291,0.087-0.586,0.174-0.885,0.263
						c-0.327,0.094-0.649,0.187-0.966,0.279c0.036-0.564,0.071-1.114,0.104-1.645l0.027-0.356l0.02-0.189
						c0.015-0.124,0.03-0.246,0.044-0.365c0.062-0.474,0.134-0.899,0.213-1.254c0.158-0.71,0.344-1.144,0.524-1.141
						c0.181,0.003,0.324,0.445,0.414,1.174c0.045,0.365,0.077,0.801,0.092,1.289c0.003,0.122,0.006,0.247,0.009,0.375l0.002,0.194
						c0.001,0.063,0.006,0.021,0.008,0.035c0.012,0.001,0.021-0.002,0.027-0.007l0.005-0.006l0.001,0.004
						c0.141-0.038,0.28-0.075,0.417-0.111c0.285-0.069,0.561-0.135,0.825-0.199c0.528-0.118,1.01-0.205,1.42-0.259
						C353.394,395.593,353.928,395.619,353.983,395.805z"/>
				</g>
			</g>
		</g>
		<g>
			<g>
				<g>
					<path style="fill:#C27F61;" d="M349.468,420.513c0.215,0.335-0.599,1.229-1.247,2.474c-0.679,1.229-0.973,2.402-1.371,2.408
						c-0.188-0.004-0.368-0.343-0.398-0.92c-0.032-0.572,0.116-1.375,0.532-2.151c0.417-0.775,1.004-1.343,1.498-1.633
						C348.979,420.396,349.361,420.359,349.468,420.513z"/>
				</g>
			</g>
		</g>
		<path style="fill:#382410;" d="M355.087,426.485c0-1.659-0.761-3.003-1.7-3.003c-0.939,0-1.091,1.352-1.091,3.011
			c0,1.659,0.152,2.995,1.091,2.995C354.326,429.488,355.087,428.143,355.087,426.485z"/>
		<path style="fill:#382410;" d="M328.813,409.549c0,0,5.631,4.532,2.003,10.984c-0.319,0.567-0.118,1.286,0.457,1.59l1.423,0.751
			c0.555,0.293,1.238,0.088,1.545-0.459c1.452-2.587,4.734-9.893-0.417-15.903C327.446,399.071,328.813,409.549,328.813,409.549z"/>
		<g>
			<g>
				<g>
					<path style="fill:#9DB3AD;" d="M376.746,433.732c0.094,0.355-3.35,1.444-7.742,1.225c-4.394-0.194-7.72-1.602-7.593-1.947
						c0.118-0.391,3.474,0.364,7.659,0.544C373.253,433.768,376.666,433.331,376.746,433.732z"/>
				</g>
			</g>
		</g>
	</g>
	<g>
		<defs>
			<polygon id="SVGID_1_" points="336.46,0 335.8,0 128.28,0 126.87,0 0,0 0,76.53 0,77.77 0,409.35 0,445.26 0,445.72 0,500 
				317.19,500 321.11,500 500,500 500,478.02 500,476.86 500,460.34 500,459.41 500,409.35 500,171.76 500,170.69 500,0 			"/>
		</defs>
		<clipPath id="SVGID_00000007390546761031364310000007889142212001762177_">
			<use xlink:href="#SVGID_1_"  style="overflow:visible;"/>
		</clipPath>
		<g style="clip-path:url(#SVGID_00000007390546761031364310000007889142212001762177_);">
			<g>
				<g>
					<rect x="406.155" y="94.951" style="fill:#FAD5C3;" width="32.389" height="2.087"/>
					<path style="fill:#FAE9E1;" d="M439.996,99.571v-41.15h-0.015v-0.431c0-5.719-3.948-10.733-9.646-12.257
						c-0.328-0.088-0.663-0.171-1.005-0.25c-4.206-0.96-6.495-3.452-7.095-4.19c-0.032-0.039-0.059-0.073-0.08-0.101
						c-0.023,0.028-0.05,0.062-0.081,0.101c-0.599,0.738-2.888,3.23-7.094,4.19c-0.342,0.079-0.677,0.161-1.005,0.25
						c-3.464,0.927-6.282,3.142-7.959,6.023c-0.894,1.537-1.465,3.262-1.634,5.082c-0.036,0.379-0.054,0.764-0.054,1.152v0.815
						h0.072v47.515h0.219v0.349h35.407v-7.097H439.996z M435.876,64.447v35.124h-11.953V64.447c0-3.116,2.526-5.642,5.642-5.642
						h0.669C433.35,58.805,435.876,61.331,435.876,64.447z M419.802,64.447v35.124h-11.284V64.447c0-3.116,2.526-5.642,5.642-5.642
						l0,0C417.276,58.805,419.802,61.331,419.802,64.447z"/>
					<line style="fill:none;stroke:#FAE9E1;stroke-miterlimit:10;" x1="422.397" y1="53.304" x2="422.397" y2="-59.1"/>
				</g>
				<rect x="403.434" y="54.076" style="fill:#FFFFFF;" width="37.646" height="2.128"/>
				<rect x="403.434" y="99.579" style="fill:#FFFFFF;" width="37.646" height="2.128"/>
			</g>
			<circle style="fill:#FFFFFF;" cx="422.347" cy="22.379" r="1.989"/>
		</g>
		<g style="clip-path:url(#SVGID_00000007390546761031364310000007889142212001762177_);">
			<g>
				<g>
					<rect x="53.468" y="137.791" style="fill:#FAD5C3;" width="32.389" height="2.087"/>
					<path style="fill:#FAE9E1;" d="M87.309,142.411v-41.15h-0.015v-0.431c0-5.719-3.948-10.733-9.646-12.257
						c-0.328-0.088-0.663-0.171-1.005-0.25c-4.206-0.96-6.495-3.452-7.095-4.19c-0.031-0.039-0.059-0.073-0.08-0.101
						c-0.023,0.028-0.05,0.062-0.081,0.101c-0.599,0.738-2.888,3.23-7.094,4.19c-0.342,0.079-0.677,0.161-1.005,0.25
						c-3.464,0.927-6.282,3.142-7.959,6.024c-0.894,1.537-1.465,3.262-1.634,5.081c-0.036,0.379-0.054,0.764-0.054,1.152v0.815
						h0.072v47.515h0.219v0.349h35.407v-7.097H87.309z M83.189,107.287v35.124H71.236v-35.124c0-3.116,2.526-5.642,5.642-5.642
						h0.669C80.663,101.645,83.189,104.171,83.189,107.287z M67.115,107.287v35.124H55.831v-35.124c0-3.116,2.526-5.642,5.642-5.642
						l0,0C64.589,101.645,67.115,104.171,67.115,107.287z"/>
					<line style="fill:none;stroke:#FAE9E1;stroke-miterlimit:10;" x1="69.71" y1="96.144" x2="69.71" y2="-16.26"/>
				</g>
				<rect x="50.747" y="96.916" style="fill:#FFFFFF;" width="37.646" height="2.128"/>
				<rect x="50.747" y="142.419" style="fill:#FFFFFF;" width="37.646" height="2.128"/>
			</g>
			<path style="fill:#FFFFFF;" d="M72.013,66.904c0,1.098-0.891,1.989-1.989,1.989c-1.098,0-1.989-0.89-1.989-1.989
				c0-1.098,0.89-1.989,1.989-1.989C71.123,64.915,72.013,65.806,72.013,66.904z"/>
			<path style="fill:#FFFFFF;" d="M71.545,39.844c0,1.098-0.89,1.989-1.989,1.989c-1.099,0-1.989-0.89-1.989-1.989
				s0.89-1.989,1.989-1.989C70.654,37.855,71.545,38.746,71.545,39.844z"/>
		</g>
	</g>
</g>
</svg>
