<svg width="512" height="512" viewBox="0 0 512 512" fill="none" xmlns="http://www.w3.org/2000/svg">
<rect width="512" height="512" rx="93" fill="#18392B"/>
<path d="M448 173.581L264.565 238.407C258.928 240.4 252.775 240.388 247.145 238.374L66 173.581" stroke="white" stroke-width="15" stroke-linecap="round"/>
<path d="M422.687 160L265.394 212.381C259.201 214.444 252.503 214.43 246.318 212.341L91.3133 160" stroke="white" stroke-width="6" stroke-linecap="round"/>
<path d="M334.631 303.137C338.479 313.04 327.474 318.071 320.608 309.963C303.008 289.183 291.891 274.823 257 274.823C223.158 274.823 210.422 287.995 193.979 307.844C187.028 316.235 175.902 311.359 180.107 301.307C192.352 272.032 222.165 251.365 257 251.365C292.556 251.365 322.881 272.897 334.631 303.137Z" fill="white"/>
</svg>
